<svg width="160" height="39" viewBox="0 0 160 39" fill="none" xmlns="http://www.w3.org/2000/svg">
<path d="M23.3703 27.2419C21.5043 28.8462 19.4378 30.0863 16.9978 30.5705C15.9543 30.7776 14.8825 30.9338 13.8217 30.9458C9.96053 30.9894 6.09856 30.966 2.23692 30.9562C1.86035 30.9553 1.46956 30.9242 1.11037 30.8205C0.211893 30.5612 -0.165943 29.7518 0.128909 28.7741C0.567485 27.32 1.04113 25.8759 1.44874 24.4132C1.53835 24.0917 1.5163 23.6607 1.37261 23.3639C-2.70725 14.9356 2.73029 5.2912 12.103 4.08445C12.1973 4.07231 12.2934 4.07434 12.5099 4.05786C14.072 4.14666 15.5516 4.07067 16.9471 4.37751C24.4496 6.02714 28.9911 13.313 27.1989 20.7435C26.5863 23.2836 25.2063 25.4054 23.3703 27.2419ZM17.029 22.6991C16.3235 22.9749 15.6391 23.3469 14.9083 23.5083C12.7865 23.9771 10.7498 23.7087 8.85776 22.5777C8.41274 22.3117 7.92945 22.2034 7.59595 22.7072C7.28322 23.1796 7.44408 23.5985 7.91079 23.925C10.6557 25.8454 15.4454 25.8453 18.1961 23.9288C18.6379 23.621 18.7901 23.2309 18.5536 22.7675C18.3145 22.2993 17.8807 22.3005 17.4396 22.4752C17.3301 22.5186 17.232 22.591 17.029 22.6991Z" fill="#0098FD"/>
<path d="M23.4357 27.2542C25.2064 25.4055 26.5864 23.2838 27.1991 20.7436C28.9913 13.3132 24.4497 6.02728 16.9472 4.37765C15.5517 4.07081 14.0721 4.1468 12.5716 4.04577C16.5158 0.461781 21.1647 -0.578161 26.2274 1.01978C31.2534 2.60615 34.4435 6.10235 35.5125 11.3329C36.0999 14.2075 35.7193 17.0024 34.4298 19.666C34.2761 19.9836 34.2535 20.4431 34.3478 20.7884C34.7223 22.1604 35.1714 23.512 35.5852 24.8735C36.0478 26.3957 35.4014 27.2841 33.7977 27.2863C30.3654 27.2911 26.9332 27.2743 23.4357 27.2542Z" fill="#F1EFE9"/>
<path d="M17.0787 22.6748C17.2319 22.5913 17.3299 22.5189 17.4394 22.4755C17.8805 22.3008 18.3144 22.2995 18.5534 22.7678C18.79 23.2311 18.6378 23.6212 18.1959 23.929C15.4452 25.8455 10.6555 25.8456 7.91063 23.9253C7.44391 23.5987 7.28306 23.1799 7.59579 22.7074C7.92929 22.2036 8.41258 22.3119 8.85759 22.5779C10.7496 23.7089 12.7863 23.9774 14.9081 23.5086C15.639 23.3471 16.3233 22.9751 17.0787 22.6748Z" fill="#FAFCFE"/>
<path d="M49.6731 20.2315C48.5359 20.2315 47.5544 19.9822 46.7288 19.4837C45.9031 18.9852 45.2644 18.292 44.8127 17.404C44.3765 16.5005 44.1584 15.4567 44.1584 14.2728C44.1584 13.0733 44.3765 12.0373 44.8127 11.1649C45.2644 10.2925 45.9031 9.62267 46.7288 9.15532C47.5544 8.68797 48.5359 8.4543 49.6731 8.4543C50.3741 8.4543 51.0673 8.57892 51.7528 8.82817C52.4382 9.07743 53.0068 9.42794 53.4586 9.87971L52.8043 11.2584C52.3526 10.8222 51.854 10.5028 51.3088 10.3003C50.7791 10.0978 50.2728 9.99655 49.7899 9.99655C48.606 9.99655 47.6946 10.3704 47.0559 11.1182C46.4172 11.8504 46.0979 12.9097 46.0979 14.2962C46.0979 15.6515 46.4172 16.7264 47.0559 17.5209C47.6946 18.2998 48.606 18.6892 49.7899 18.6892C50.2728 18.6892 50.7791 18.588 51.3088 18.3855C51.854 18.1829 52.3526 17.8558 52.8043 17.404L53.4586 18.7827C53.0068 19.2345 52.4304 19.5928 51.7294 19.8576C51.044 20.1069 50.3585 20.2315 49.6731 20.2315ZM59.1577 20.2315C58.0049 20.2315 57.1325 19.8888 56.5406 19.2033C55.9642 18.5179 55.676 17.5364 55.676 16.259V3.54713H57.5687V16.1188C57.5687 16.6641 57.6388 17.1236 57.779 17.4975C57.9348 17.8714 58.1607 18.1518 58.4567 18.3387C58.7527 18.5257 59.1188 18.6191 59.555 18.6191C59.7419 18.6191 59.921 18.6113 60.0924 18.5958C60.2793 18.5646 60.4507 18.5257 60.6065 18.4789L60.5598 20.0679C60.3105 20.1146 60.069 20.1536 59.8354 20.1848C59.6173 20.2159 59.3914 20.2315 59.1577 20.2315ZM62.3567 5.83714V3.7107H64.6934V5.83714H62.3567ZM62.5904 20.0212V8.6646H64.4831V20.0212H62.5904ZM72.8351 20.2315C71.6979 20.2315 70.7165 19.9822 69.8909 19.4837C69.0652 18.9852 68.4265 18.292 67.9747 17.404C67.5385 16.5005 67.3204 15.4567 67.3204 14.2728C67.3204 13.0733 67.5385 12.0373 67.9747 11.1649C68.4265 10.2925 69.0652 9.62267 69.8909 9.15532C70.7165 8.68797 71.6979 8.4543 72.8351 8.4543C73.5362 8.4543 74.2294 8.57892 74.9149 8.82817C75.6003 9.07743 76.1689 9.42794 76.6207 9.87971L75.9664 11.2584C75.5146 10.8222 75.0161 10.5028 74.4709 10.3003C73.9412 10.0978 73.4349 9.99655 72.952 9.99655C71.768 9.99655 70.8567 10.3704 70.218 11.1182C69.5793 11.8504 69.2599 12.9097 69.2599 14.2962C69.2599 15.6515 69.5793 16.7264 70.218 17.5209C70.8567 18.2998 71.768 18.6892 72.952 18.6892C73.4349 18.6892 73.9412 18.588 74.4709 18.3855C75.0161 18.1829 75.5146 17.8558 75.9664 17.404L76.6207 18.7827C76.1689 19.2345 75.5925 19.5928 74.8915 19.8576C74.206 20.1069 73.5206 20.2315 72.8351 20.2315ZM78.838 20.0212V3.54713H80.7308V13.712H80.7775L86.0352 8.6646H88.442L82.2029 14.6467V13.6185L88.9328 20.0212H86.5259L80.7775 14.6934H80.7308V20.0212H78.838Z" fill="#262626"/>
<path d="M90.1479 20.0212V8.54776H93.6062V10.6976H93.3492C93.5517 10.2146 93.8321 9.79403 94.1904 9.43573C94.5487 9.07743 94.9771 8.80481 95.4756 8.61787C95.9741 8.41535 96.5194 8.31409 97.1114 8.31409C97.9993 8.31409 98.7393 8.5244 99.3313 8.94501C99.9232 9.36563 100.344 10.0121 100.593 10.8845H100.266C100.609 10.09 101.131 9.46688 101.832 9.01511C102.548 8.54776 103.366 8.31409 104.285 8.31409C105.173 8.31409 105.898 8.49324 106.458 8.85154C107.035 9.19426 107.463 9.72393 107.744 10.4405C108.024 11.1416 108.164 12.0373 108.164 13.1278V20.0212H104.636V13.2446C104.636 12.4813 104.511 11.9283 104.262 11.5855C104.028 11.2272 103.623 11.0481 103.047 11.0481C102.611 11.0481 102.229 11.1571 101.902 11.3752C101.575 11.5777 101.325 11.8815 101.154 12.2866C100.998 12.676 100.92 13.1589 100.92 13.7353V20.0212H97.3918V13.2446C97.3918 12.4813 97.2671 11.9283 97.0179 11.5855C96.7842 11.2272 96.3792 11.0481 95.8028 11.0481C95.351 11.0481 94.9693 11.1571 94.6578 11.3752C94.3462 11.5777 94.1048 11.8815 93.9334 12.2866C93.762 12.676 93.6763 13.1589 93.6763 13.7353V20.0212H90.1479ZM114.279 20.2782C113.438 20.2782 112.682 20.1146 112.012 19.7875C111.342 19.4604 110.82 19.0164 110.447 18.4556C110.073 17.8947 109.886 17.2638 109.886 16.5628C109.886 15.7216 110.104 15.0595 110.54 14.5766C110.976 14.0781 111.685 13.7275 112.666 13.525C113.648 13.3069 114.949 13.1979 116.569 13.1979H117.807V15.0205H116.592C115.985 15.0205 115.471 15.0439 115.05 15.0906C114.645 15.1374 114.31 15.2231 114.045 15.3477C113.78 15.4567 113.586 15.5969 113.461 15.7683C113.352 15.9397 113.297 16.1578 113.297 16.4226C113.297 16.8588 113.445 17.2171 113.741 17.4975C114.053 17.7779 114.497 17.9181 115.073 17.9181C115.525 17.9181 115.922 17.8169 116.265 17.6143C116.623 17.3962 116.904 17.108 117.106 16.7497C117.309 16.3759 117.41 15.9552 117.41 15.4879V12.8006C117.41 12.1152 117.254 11.6323 116.943 11.3519C116.631 11.0559 116.101 10.9079 115.354 10.9079C114.731 10.9079 114.068 11.0091 113.367 11.2117C112.682 11.3986 111.997 11.6868 111.311 12.0762L110.353 9.71614C110.758 9.43573 111.249 9.19426 111.825 8.99175C112.417 8.77365 113.032 8.61008 113.671 8.50103C114.31 8.3764 114.917 8.31409 115.494 8.31409C116.693 8.31409 117.675 8.49324 118.438 8.85154C119.217 9.19426 119.801 9.73172 120.191 10.4639C120.58 11.1805 120.775 12.1074 120.775 13.2446V20.0212H117.48V17.7078H117.644C117.55 18.2375 117.348 18.697 117.036 19.0865C116.74 19.4604 116.358 19.7563 115.891 19.9744C115.424 20.177 114.886 20.2782 114.279 20.2782ZM127.333 20.2782C126.663 20.2782 126.016 20.2237 125.393 20.1146C124.77 20.0056 124.202 19.8576 123.687 19.6707C123.173 19.4837 122.722 19.2501 122.332 18.9696L123.173 16.6796C123.563 16.9133 123.983 17.1236 124.435 17.3106C124.903 17.4819 125.385 17.6143 125.884 17.7078C126.382 17.8013 126.873 17.848 127.356 17.848C128.026 17.848 128.509 17.7467 128.805 17.5442C129.116 17.3261 129.272 17.0457 129.272 16.703C129.272 16.3914 129.171 16.1578 128.968 16.002C128.766 15.8462 128.47 15.7371 128.081 15.6748L125.627 15.2309C124.661 15.0595 123.913 14.709 123.384 14.1793C122.87 13.6341 122.613 12.9408 122.613 12.0996C122.613 11.3207 122.831 10.6508 123.267 10.09C123.703 9.51362 124.303 9.07743 125.066 8.78144C125.845 8.46987 126.725 8.31409 127.707 8.31409C128.267 8.31409 128.813 8.36083 129.342 8.4543C129.872 8.54776 130.371 8.68797 130.838 8.87491C131.321 9.06185 131.749 9.3111 132.123 9.62267L131.235 11.8893C130.939 11.6556 130.589 11.4531 130.184 11.2818C129.779 11.1104 129.366 10.978 128.945 10.8845C128.525 10.7755 128.127 10.7209 127.753 10.7209C127.052 10.7209 126.546 10.8378 126.234 11.0714C125.923 11.2895 125.767 11.57 125.767 11.9127C125.767 12.1775 125.853 12.4034 126.024 12.5903C126.211 12.7617 126.492 12.8785 126.865 12.9408L129.319 13.3848C130.332 13.5562 131.103 13.8989 131.632 14.413C132.162 14.9115 132.427 15.5969 132.427 16.4693C132.427 17.2638 132.217 17.9493 131.796 18.5257C131.375 19.0865 130.783 19.5227 130.02 19.8342C129.257 20.1302 128.361 20.2782 127.333 20.2782ZM138.367 20.2782C137.697 20.2782 137.05 20.2237 136.427 20.1146C135.804 20.0056 135.235 19.8576 134.721 19.6707C134.207 19.4837 133.755 19.2501 133.366 18.9696L134.207 16.6796C134.597 16.9133 135.017 17.1236 135.469 17.3106C135.936 17.4819 136.419 17.6143 136.918 17.7078C137.416 17.8013 137.907 17.848 138.39 17.848C139.06 17.848 139.543 17.7467 139.839 17.5442C140.15 17.3261 140.306 17.0457 140.306 16.703C140.306 16.3914 140.205 16.1578 140.002 16.002C139.8 15.8462 139.504 15.7371 139.114 15.6748L136.661 15.2309C135.695 15.0595 134.947 14.709 134.417 14.1793C133.903 13.6341 133.646 12.9408 133.646 12.0996C133.646 11.3207 133.864 10.6508 134.301 10.09C134.737 9.51362 135.337 9.07743 136.1 8.78144C136.879 8.46987 137.759 8.31409 138.74 8.31409C139.301 8.31409 139.847 8.36083 140.376 8.4543C140.906 8.54776 141.404 8.68797 141.872 8.87491C142.355 9.06185 142.783 9.3111 143.157 9.62267L142.269 11.8893C141.973 11.6556 141.622 11.4531 141.217 11.2818C140.812 11.1104 140.4 10.978 139.979 10.8845C139.558 10.7755 139.161 10.7209 138.787 10.7209C138.086 10.7209 137.58 10.8378 137.268 11.0714C136.957 11.2895 136.801 11.57 136.801 11.9127C136.801 12.1775 136.887 12.4034 137.058 12.5903C137.245 12.7617 137.525 12.8785 137.899 12.9408L140.353 13.3848C141.365 13.5562 142.137 13.8989 142.666 14.413C143.196 14.9115 143.461 15.5969 143.461 16.4693C143.461 17.2638 143.25 17.9493 142.83 18.5257C142.409 19.0865 141.817 19.5227 141.054 19.8342C140.29 20.1302 139.395 20.2782 138.367 20.2782ZM148.886 20.2782C148.045 20.2782 147.29 20.1146 146.62 19.7875C145.95 19.4604 145.428 19.0164 145.054 18.4556C144.68 17.8947 144.493 17.2638 144.493 16.5628C144.493 15.7216 144.711 15.0595 145.148 14.5766C145.584 14.0781 146.293 13.7275 147.274 13.525C148.255 13.3069 149.556 13.1979 151.176 13.1979H152.415V15.0205H151.2C150.592 15.0205 150.078 15.0439 149.657 15.0906C149.252 15.1374 148.917 15.2231 148.653 15.3477C148.388 15.4567 148.193 15.5969 148.068 15.7683C147.959 15.9397 147.905 16.1578 147.905 16.4226C147.905 16.8588 148.053 17.2171 148.349 17.4975C148.66 17.7779 149.104 17.9181 149.681 17.9181C150.133 17.9181 150.53 17.8169 150.873 17.6143C151.231 17.3962 151.511 17.108 151.714 16.7497C151.916 16.3759 152.018 15.9552 152.018 15.4879V12.8006C152.018 12.1152 151.862 11.6323 151.55 11.3519C151.239 11.0559 150.709 10.9079 149.961 10.9079C149.338 10.9079 148.676 11.0091 147.975 11.2117C147.29 11.3986 146.604 11.6868 145.919 12.0762L144.961 9.71614C145.366 9.43573 145.856 9.19426 146.433 8.99175C147.025 8.77365 147.64 8.61008 148.279 8.50103C148.917 8.3764 149.525 8.31409 150.101 8.31409C151.301 8.31409 152.282 8.49324 153.046 8.85154C153.825 9.19426 154.409 9.73172 154.798 10.4639C155.188 11.1805 155.382 12.1074 155.382 13.2446V20.0212H152.088V17.7078H152.251C152.158 18.2375 151.955 18.697 151.644 19.0865C151.348 19.4604 150.966 19.7563 150.499 19.9744C150.031 20.177 149.494 20.2782 148.886 20.2782Z" fill="#0098FD"/>
<path d="M118.815 30.016C118.353 30.016 117.95 29.9225 117.605 29.7356C117.267 29.5487 117.001 29.2858 116.808 28.947C116.621 28.6023 116.528 28.2021 116.528 27.7465C116.528 27.2849 116.621 26.8848 116.808 26.546C117.001 26.2071 117.27 25.9472 117.614 25.7661C117.959 25.5791 118.362 25.4857 118.823 25.4857C119.133 25.4857 119.428 25.5324 119.709 25.6259C119.989 25.7193 120.22 25.8449 120.401 26.0027L120.05 26.8439C119.893 26.7154 119.714 26.6161 119.516 26.546C119.323 26.4759 119.133 26.4408 118.946 26.4408C118.549 26.4408 118.242 26.5518 118.026 26.7738C117.81 26.9958 117.702 27.32 117.702 27.7465C117.702 28.1729 117.81 28.5001 118.026 28.7279C118.242 28.9557 118.549 29.0696 118.946 29.0696C119.133 29.0696 119.323 29.0346 119.516 28.9645C119.709 28.8944 119.881 28.7951 120.033 28.6665L120.392 29.5078C120.211 29.6597 119.98 29.7823 119.7 29.8758C119.419 29.9693 119.124 30.016 118.815 30.016ZM123.17 30.016C122.709 30.016 122.306 29.9225 121.961 29.7356C121.622 29.5487 121.359 29.2858 121.172 28.947C120.985 28.6023 120.892 28.2021 120.892 27.7465C120.892 27.2908 120.985 26.8935 121.172 26.5547C121.359 26.2159 121.622 25.953 121.961 25.7661C122.306 25.5791 122.709 25.4857 123.17 25.4857C123.638 25.4857 124.041 25.5791 124.379 25.7661C124.718 25.953 124.978 26.2159 125.159 26.5547C125.346 26.8935 125.44 27.2908 125.44 27.7465C125.44 28.2021 125.346 28.6023 125.159 28.947C124.978 29.2858 124.718 29.5487 124.379 29.7356C124.041 29.9225 123.638 30.016 123.17 30.016ZM123.17 29.0872C123.521 29.0872 123.795 28.9703 123.994 28.7367C124.198 28.4971 124.301 28.1641 124.301 27.7377C124.301 27.3171 124.198 26.9929 123.994 26.765C123.795 26.5372 123.521 26.4233 123.17 26.4233C122.82 26.4233 122.542 26.5372 122.338 26.765C122.139 26.9929 122.04 27.3171 122.04 27.7377C122.04 28.1641 122.139 28.4971 122.338 28.7367C122.542 28.9703 122.82 29.0872 123.17 29.0872ZM126.52 29.9284V25.5733H127.606V26.4583H127.589C127.729 26.1487 127.936 25.9092 128.211 25.7398C128.491 25.5704 128.804 25.4857 129.148 25.4857C129.499 25.4857 129.794 25.5528 130.034 25.6872C130.273 25.8216 130.451 26.026 130.568 26.3006C130.691 26.5752 130.752 26.9198 130.752 27.3346V29.9284H129.595V27.3872C129.595 27.1769 129.566 27.0016 129.508 26.8614C129.455 26.7212 129.368 26.6161 129.245 26.546C129.128 26.47 128.973 26.432 128.78 26.432C128.57 26.432 128.38 26.4817 128.211 26.581C128.047 26.6745 127.919 26.8059 127.825 26.9753C127.732 27.1389 127.685 27.3288 127.685 27.5449V29.9284H126.52ZM133.197 29.9284L131.365 25.5733H132.601L133.819 28.8068H133.731L134.967 25.5733H136.15L134.31 29.9284H133.197ZM138.989 30.016C138.458 30.016 138.005 29.9255 137.631 29.7444C137.263 29.5574 136.98 29.2945 136.781 28.9557C136.588 28.6169 136.492 28.2167 136.492 27.7552C136.492 27.3171 136.583 26.9286 136.764 26.5898C136.951 26.2509 137.214 25.9822 137.552 25.7836C137.891 25.585 138.288 25.4857 138.744 25.4857C139.171 25.4857 139.539 25.5762 139.848 25.7573C140.158 25.9384 140.397 26.1954 140.567 26.5284C140.742 26.8614 140.83 27.2616 140.83 27.7289V28.0707H137.412V27.3697H139.997L139.857 27.5186C139.857 27.1155 139.761 26.8147 139.568 26.6161C139.381 26.4116 139.115 26.3094 138.77 26.3094C138.531 26.3094 138.321 26.3619 138.139 26.4671C137.964 26.5664 137.827 26.7124 137.728 26.9052C137.634 27.098 137.587 27.3375 137.587 27.6238V27.7289C137.587 28.0502 137.64 28.3131 137.745 28.5176C137.856 28.722 138.017 28.8739 138.227 28.9732C138.443 29.0667 138.709 29.1135 139.024 29.1135C139.258 29.1135 139.495 29.0842 139.734 29.0258C139.98 28.9616 140.202 28.8564 140.4 28.7104L140.724 29.499C140.497 29.6743 140.225 29.8057 139.91 29.8933C139.6 29.9751 139.293 30.016 138.989 30.016ZM141.88 29.9284V25.5733H142.932V26.6423H142.923C143.016 26.3035 143.186 26.0377 143.431 25.8449C143.677 25.6463 143.989 25.5353 144.369 25.5119L144.825 25.4769L144.921 26.5109L144.159 26.581C143.796 26.6102 143.522 26.7271 143.335 26.9315C143.148 27.1301 143.054 27.3872 143.054 27.7026V29.9284H141.88ZM147.371 30.016C147.114 30.016 146.866 29.9956 146.626 29.9547C146.387 29.9196 146.165 29.8671 145.96 29.7969C145.761 29.721 145.589 29.6275 145.443 29.5165L145.741 28.7279C145.893 28.8272 146.059 28.909 146.241 28.9732C146.422 29.0375 146.606 29.0842 146.793 29.1135C146.98 29.1427 147.161 29.1573 147.336 29.1573C147.651 29.1573 147.888 29.1193 148.046 29.0433C148.203 28.9616 148.282 28.8418 148.282 28.6841C148.282 28.5497 148.236 28.4504 148.142 28.3861C148.054 28.3219 147.908 28.2722 147.704 28.2372L146.758 28.097C146.349 28.0327 146.042 27.8925 145.837 27.6764C145.639 27.4544 145.539 27.1856 145.539 26.8702C145.539 26.5956 145.615 26.3561 145.767 26.1516C145.919 25.9472 146.141 25.7865 146.433 25.6697C146.725 25.547 147.079 25.4857 147.494 25.4857C147.71 25.4857 147.923 25.5061 148.133 25.547C148.349 25.582 148.548 25.6375 148.729 25.7135C148.916 25.7836 149.074 25.8741 149.202 25.9851L148.878 26.765C148.761 26.6716 148.624 26.5956 148.466 26.5372C148.314 26.4729 148.154 26.4262 147.984 26.397C147.815 26.3619 147.651 26.3444 147.494 26.3444C147.184 26.3444 146.953 26.3882 146.801 26.4759C146.649 26.5576 146.574 26.6774 146.574 26.8351C146.574 26.9578 146.617 27.0542 146.705 27.1243C146.793 27.1886 146.93 27.2353 147.117 27.2645L148.037 27.4222C148.469 27.4982 148.79 27.6384 149.001 27.8428C149.211 28.0415 149.316 28.3102 149.316 28.649C149.316 28.9294 149.237 29.1719 149.08 29.3763C148.922 29.5808 148.697 29.7385 148.405 29.8495C148.113 29.9605 147.768 30.016 147.371 30.016ZM151.851 30.016C151.529 30.016 151.243 29.9547 150.992 29.832C150.741 29.7093 150.542 29.5457 150.396 29.3413C150.25 29.131 150.177 28.8973 150.177 28.6403C150.177 28.319 150.268 28.0619 150.449 27.8691C150.63 27.6705 150.913 27.5274 151.299 27.4398C151.684 27.3463 152.187 27.2996 152.806 27.2996H153.367V27.9918H152.85C152.581 27.9918 152.35 28.0006 152.157 28.0181C151.965 28.0356 151.804 28.0678 151.675 28.1145C151.553 28.1554 151.462 28.2138 151.404 28.2897C151.345 28.3657 151.316 28.4621 151.316 28.5789C151.316 28.7775 151.389 28.9294 151.535 29.0346C151.681 29.1339 151.874 29.1836 152.114 29.1836C152.318 29.1836 152.502 29.1368 152.666 29.0433C152.835 28.9499 152.969 28.8243 153.069 28.6665C153.168 28.503 153.218 28.3219 153.218 28.1233V27.1593C153.218 26.8673 153.136 26.6628 152.972 26.546C152.809 26.4291 152.558 26.3707 152.219 26.3707C151.979 26.3707 151.731 26.4057 151.474 26.4759C151.223 26.5401 150.96 26.6511 150.685 26.8088L150.361 26.0027C150.548 25.8917 150.75 25.7982 150.966 25.7223C151.188 25.6463 151.418 25.5879 151.658 25.547C151.897 25.5061 152.134 25.4857 152.368 25.4857C152.782 25.4857 153.136 25.5499 153.428 25.6784C153.726 25.807 153.951 26.0056 154.103 26.2743C154.26 26.5372 154.339 26.8789 154.339 27.2996V29.9284H153.34V29.0258H153.332C153.262 29.2186 153.159 29.3909 153.025 29.5428C152.891 29.6889 152.724 29.8057 152.525 29.8933C152.333 29.9751 152.108 30.016 151.851 30.016ZM157.323 30.016C157.066 30.016 156.818 29.9956 156.578 29.9547C156.339 29.9196 156.117 29.8671 155.912 29.7969C155.714 29.721 155.541 29.6275 155.395 29.5165L155.693 28.7279C155.845 28.8272 156.012 28.909 156.193 28.9732C156.374 29.0375 156.558 29.0842 156.745 29.1135C156.932 29.1427 157.113 29.1573 157.288 29.1573C157.604 29.1573 157.84 29.1193 157.998 29.0433C158.156 28.9616 158.235 28.8418 158.235 28.6841C158.235 28.5497 158.188 28.4504 158.094 28.3861C158.007 28.3219 157.861 28.2722 157.656 28.2372L156.71 28.097C156.301 28.0327 155.994 27.8925 155.79 27.6764C155.591 27.4544 155.492 27.1856 155.492 26.8702C155.492 26.5956 155.568 26.3561 155.72 26.1516C155.871 25.9472 156.093 25.7865 156.386 25.6697C156.678 25.547 157.031 25.4857 157.446 25.4857C157.662 25.4857 157.875 25.5061 158.086 25.547C158.302 25.582 158.5 25.6375 158.681 25.7135C158.868 25.7836 159.026 25.8741 159.155 25.9851L158.83 26.765C158.714 26.6716 158.576 26.5956 158.419 26.5372C158.267 26.4729 158.106 26.4262 157.937 26.397C157.767 26.3619 157.604 26.3444 157.446 26.3444C157.136 26.3444 156.905 26.3882 156.754 26.4759C156.602 26.5576 156.526 26.6774 156.526 26.8351C156.526 26.9578 156.57 27.0542 156.657 27.1243C156.745 27.1886 156.882 27.2353 157.069 27.2645L157.989 27.4222C158.421 27.4982 158.743 27.6384 158.953 27.8428C159.163 28.0415 159.269 28.3102 159.269 28.649C159.269 28.9294 159.19 29.1719 159.032 29.3763C158.874 29.5808 158.649 29.7385 158.357 29.8495C158.065 29.9605 157.72 30.016 157.323 30.016Z" fill="#262626"/>
</svg>
